<svg width="873" height="586" viewBox="0 0 873 586" fill="none" xmlns="http://www.w3.org/2000/svg">
<path fill-rule="evenodd" clip-rule="evenodd" d="M779.484 507.99L779.514 508.008C783.178 510.133 784.434 514.817 782.325 518.487L746.662 580.531C746.408 581.017 746.1 581.478 745.741 581.904C744.945 582.855 743.951 583.573 742.857 584.034L742.441 584.195L742.07 584.316L741.702 584.416L741.245 584.514L740.797 584.581L740.411 584.617L740.187 584.63L739.842 584.635L739.476 584.624L739.271 584.61L738.977 584.581L738.529 584.514L738.202 584.447L737.912 584.375L737.528 584.261L737.285 584.177C736.146 583.766 735.1 583.082 734.254 582.155C733.796 581.656 733.416 581.111 733.112 580.531L697.45 518.487C695.397 514.916 696.531 510.385 699.968 508.186L700.29 507.99C703.843 505.951 708.352 507.088 710.525 510.512L710.7 510.803L739.886 561.581L769.074 510.803C771.172 507.154 775.832 505.895 779.484 507.99ZM610.889 506.977C614.904 506.977 618.198 510.065 618.522 513.994L618.542 514.33L618.546 514.488L618.548 575.857C618.548 580.083 615.119 583.51 610.889 583.51H549.453C545.223 583.51 541.794 580.083 541.794 575.857V514.63C541.794 510.404 545.223 506.977 549.453 506.977H610.889ZM246.307 506.977C250.537 506.977 253.966 510.404 253.966 514.63C253.966 518.857 250.537 522.284 246.307 522.284L192.562 522.283V537.589L246.307 537.59C250.322 537.59 253.616 540.678 253.94 544.608L253.959 544.943L253.966 545.259V575.857C253.966 580.083 250.537 583.51 246.307 583.51H184.871C180.641 583.51 177.212 580.083 177.212 575.857C177.212 571.63 180.641 568.203 184.871 568.203L238.615 568.203V552.897L184.871 552.897C180.641 552.897 177.212 549.47 177.212 545.243V514.63C177.212 510.404 180.641 506.977 184.871 506.977H246.307ZM335.477 506.977C339.707 506.977 343.136 510.404 343.136 514.63C343.136 518.857 339.707 522.284 335.477 522.284L281.732 522.283V568.203L335.477 568.203C339.707 568.203 343.136 571.63 343.136 575.857C343.136 580.083 339.707 583.51 335.477 583.51H274.041C269.811 583.51 266.382 580.083 266.382 575.857V514.63C266.382 510.404 269.811 506.977 274.041 506.977H335.477ZM864.854 506.977C869.085 506.977 872.514 510.404 872.514 514.63C872.514 518.857 869.085 522.284 864.854 522.284L811.11 522.283V568.203L864.854 568.203C869.085 568.203 872.514 571.63 872.514 575.857C872.514 580.083 869.085 583.51 864.854 583.51H803.419C799.189 583.51 795.76 580.083 795.76 575.857V514.63C795.76 510.404 799.189 506.977 803.419 506.977H864.854ZM158.265 506.977C162.495 506.977 165.924 510.404 165.924 514.63C165.924 518.857 162.495 522.284 158.265 522.284L104.521 522.283V568.203L158.265 568.203C162.495 568.203 165.924 571.63 165.924 575.857C165.924 580.083 162.495 583.51 158.265 583.51H96.8296C92.5995 583.51 89.1702 580.083 89.1702 575.857V514.63C89.1702 510.404 92.5995 506.977 96.8296 506.977H158.265ZM423.518 506.977C427.534 506.977 430.828 510.065 431.152 513.994L431.171 514.33L431.176 514.488L431.178 575.841C431.178 580.076 427.741 583.51 423.502 583.51C419.263 583.51 415.827 580.076 415.827 575.841L415.826 522.283H369.774L369.774 575.841C369.774 580.076 366.338 583.51 362.099 583.51C357.86 583.51 354.423 580.076 354.423 575.841V514.63L354.43 514.315C354.595 510.234 357.958 506.977 362.083 506.977H423.518ZM38.1258 506.977C39.3983 506.977 40.5983 507.287 41.6544 507.836L42.0009 508.027C42.6729 508.378 43.3034 508.835 43.8682 509.397L73.6504 539.067C73.8491 539.214 74.0423 539.373 74.2293 539.542L74.5209 539.819C76.0236 541.325 76.7673 543.301 76.7529 545.272C76.7667 547.121 76.114 548.973 74.7938 550.439L74.5048 550.743C74.2342 551.012 73.9484 551.258 73.6504 551.479L43.8682 581.148C43.0268 581.987 42.0398 582.59 40.9887 582.958C40.1043 583.314 39.138 583.51 38.1258 583.51H7.65934C3.4292 583.51 0 580.083 0 575.857V514.63C0 510.404 3.4292 506.977 7.65934 506.977H38.1258ZM638.639 506.977C642.773 506.977 646.143 510.241 646.308 514.33L646.315 514.646L646.314 568.203L700.059 568.203C704.183 568.203 707.546 571.461 707.712 575.541L707.718 575.857C707.718 579.978 704.458 583.338 700.375 583.504L700.059 583.51H638.623C634.499 583.51 631.136 580.253 630.97 576.172L630.964 575.857V514.646C630.964 510.411 634.4 506.977 638.639 506.977ZM603.197 522.283H557.144V568.203H603.197V522.283ZM35.0736 522.283H15.3636V568.203H35.1323L58.1505 545.273L35.0736 522.283ZM304.775 537.59C309.005 537.59 312.434 541.017 312.434 545.243C312.434 549.365 309.175 552.725 305.091 552.89L304.743 552.897C300.513 552.897 297.084 549.47 297.084 545.243C297.084 541.122 300.343 537.762 304.427 537.597L304.775 537.59ZM834.153 537.59C838.383 537.59 841.812 541.017 841.812 545.243C841.812 549.365 838.552 552.725 834.469 552.89L834.121 552.897C829.891 552.897 826.461 549.47 826.461 545.243C826.461 541.122 829.721 537.762 833.805 537.597L834.153 537.59ZM127.563 537.59C131.794 537.59 135.223 541.017 135.223 545.243C135.223 549.365 131.963 552.725 127.879 552.89L127.531 552.897C123.301 552.897 119.872 549.47 119.872 545.243C119.872 541.122 123.132 537.762 127.216 537.597L127.563 537.59ZM487.574 584.617L487.35 584.63L486.809 584.631L486.434 584.61L486.14 584.581L485.692 584.514L485.365 584.447L485.075 584.375L484.691 584.261L484.448 584.177C483.309 583.766 482.263 583.082 481.417 582.155C480.959 581.656 480.579 581.111 480.275 580.531L444.613 518.487C442.56 514.916 443.694 510.385 447.131 508.186L447.453 507.99C451.006 505.951 455.514 507.088 457.687 510.512L457.863 510.803L487.049 561.581L516.237 510.803C518.278 507.253 522.745 505.964 526.349 507.828L526.677 508.008C530.341 510.133 531.597 514.817 529.487 518.487L493.825 580.531C493.571 581.017 493.263 581.478 492.904 581.904C492.108 582.855 491.114 583.573 490.02 584.034L489.603 584.195L489.149 584.341L488.865 584.416L488.408 584.514L487.96 584.581L487.574 584.617ZM195.988 401.479C200.319 401.479 203.831 404.988 203.831 409.316V440.381C203.831 444.601 200.493 448.042 196.311 448.211L195.915 448.218L141.797 448.217L141.798 471.3C141.798 475.628 138.286 479.137 133.955 479.137C129.623 479.137 126.111 475.628 126.111 471.3V409.316C126.111 404.988 129.623 401.479 133.955 401.479C134.087 401.479 134.219 401.482 134.35 401.489L134.544 401.481L195.988 401.479ZM188.143 417.298H141.797V432.397H188.143V417.298ZM285.979 401.479C290.311 401.479 293.822 404.988 293.822 409.316V440.381C293.822 444.601 290.484 448.042 286.302 448.211L285.906 448.218L276.052 448.217L291.369 463.663C294.44 466.76 294.44 471.752 291.369 474.849C288.421 477.822 283.672 477.929 280.595 475.152L280.277 474.849L251.538 445.867C248.467 442.77 248.467 437.779 251.538 434.682C253.222 432.983 255.494 432.22 257.706 432.396L278.135 432.397V417.298H231.789L231.789 471.3C231.789 475.628 228.277 479.137 223.946 479.137C219.614 479.137 216.102 475.628 216.102 471.3V409.316C216.102 404.988 219.614 401.479 223.946 401.479C224.078 401.479 224.21 401.482 224.341 401.489L224.536 401.481L285.979 401.479ZM378.015 479.137H316.768C316.637 479.137 316.507 479.134 316.377 479.128C316.247 479.134 316.115 479.137 315.982 479.137C311.651 479.137 308.139 475.628 308.139 471.3V409.316C308.139 404.988 311.651 401.479 315.982 401.479C316.115 401.479 316.247 401.482 316.378 401.489L316.572 401.481L378.015 401.479C382.347 401.479 385.859 404.988 385.859 409.316V471.3C385.859 475.628 382.347 479.137 378.015 479.137ZM370.171 417.298H323.825V463.317H370.171V417.298ZM467.934 401.479C472.306 401.479 475.85 405.02 475.85 409.389V471.228C475.85 475.596 472.306 479.137 467.934 479.137H406.046C401.674 479.137 398.13 475.596 398.13 471.228C398.13 466.859 401.674 463.318 406.046 463.318L460.017 463.317V417.298L444.906 417.298C440.534 417.298 436.99 413.757 436.99 409.389C436.99 405.02 440.534 401.479 444.906 401.479H467.934ZM647.917 401.479C652.288 401.479 655.832 405.02 655.832 409.389C655.832 413.757 652.288 417.298 647.917 417.298L624.888 417.298L624.889 471.228C624.889 475.596 621.344 479.137 616.973 479.137C612.601 479.137 609.057 475.596 609.057 471.228L609.055 417.298L586.029 417.298C581.657 417.298 578.113 413.757 578.113 409.389C578.113 405.02 581.657 401.479 586.029 401.479H647.917ZM737.98 479.137H676.733C676.602 479.137 676.472 479.134 676.342 479.128C676.212 479.134 676.08 479.137 675.947 479.137C671.616 479.137 668.104 475.628 668.104 471.3V409.316C668.104 404.988 671.616 401.479 675.947 401.479C676.08 401.479 676.212 401.482 676.343 401.489L676.537 401.481L737.98 401.479C742.312 401.479 745.824 404.988 745.824 409.316V471.3C745.824 475.628 742.312 479.137 737.98 479.137ZM730.136 417.298H683.79V463.317H730.136V417.298ZM558.069 401.479C562.362 401.479 565.841 404.956 565.841 409.245C565.841 413.534 562.362 417.011 558.069 417.011L503.665 417.009V463.604L558.069 463.606C562.362 463.606 565.841 467.082 565.841 471.371C565.841 475.66 562.362 479.137 558.069 479.137H495.893C491.601 479.137 488.121 475.66 488.121 471.371V409.245C488.121 404.956 491.601 401.479 495.893 401.479H558.069ZM526.981 432.542C531.274 432.542 534.753 436.019 534.753 440.308C534.753 444.597 531.274 448.074 526.981 448.074C522.689 448.074 519.209 444.597 519.209 440.308C519.209 436.019 522.689 432.542 526.981 432.542Z" fill="white"/>
<path fill-rule="evenodd" clip-rule="evenodd" d="M549.169 201.471L549.781 201.482L550.638 201.534L551.152 201.586L551.712 201.661L552.067 201.719L552.751 201.852L553.148 201.943L553.642 202.07L554.162 202.222L555.059 202.527L555.758 202.806L556.434 203.11L556.88 203.332L557.505 203.67L558.125 204.041L558.461 204.257L559.108 204.707L559.478 204.985L559.832 205.266L560.317 205.678L560.868 206.185L561.391 206.71L561.543 206.872L561.9 207.27L562.4 207.872L562.64 208.183L563.021 208.707L563.259 209.059L563.482 209.406L563.762 209.871L564.098 210.477C564.201 210.672 564.301 210.871 564.397 211.071C564.483 211.253 564.567 211.437 564.648 211.622C564.894 212.191 565.111 212.775 565.294 213.374C565.356 213.573 565.413 213.775 565.467 213.977C565.637 214.616 565.771 215.269 565.865 215.935L565.949 216.625L565.973 216.886C566.001 217.219 566.019 217.555 566.028 217.893L566.033 218.321V301.84L566.026 302.321L565.998 302.939L565.959 303.433L565.909 303.891L565.854 304.302C565.823 304.517 565.787 304.731 565.748 304.943L565.67 305.335L565.551 305.858L565.433 306.311C565.354 306.599 565.267 306.884 565.173 307.166C565.09 307.416 565.003 307.658 564.911 307.896L564.637 308.564C564.519 308.834 564.395 309.1 564.263 309.363L564.106 309.67L563.779 310.261L563.48 310.758L563.256 311.107C563.097 311.347 562.932 311.584 562.761 311.816L562.26 312.463L561.823 312.979L561.516 313.318L561.077 313.772L560.465 314.352L560.158 314.623L559.673 315.023L559.387 315.247L559.129 315.439L559.096 315.464C557.185 317.411 554.776 318.917 551.998 319.763L551.437 319.923L446.055 348.138C445.265 348.35 441.404 349.165 437.723 349.169C433.882 349.174 430.215 348.359 429.391 348.138L324.008 319.923C321.181 319.166 318.716 317.734 316.738 315.847L316.317 315.439L316.058 315.247L315.495 314.798L314.98 314.352L314.824 314.209C314.515 313.923 314.217 313.626 313.93 313.318L313.474 312.809L312.995 312.225L312.945 312.161C312.768 311.933 312.597 311.701 312.432 311.465L312.037 310.872L311.666 310.262L311.503 309.973C311.392 309.772 311.285 309.568 311.182 309.362L310.991 308.966L310.71 308.334L310.675 308.249C310.531 307.898 310.398 307.541 310.277 307.179L310.138 306.743L309.968 306.143L309.863 305.724C309.802 305.466 309.747 305.205 309.698 304.943C309.658 304.731 309.623 304.517 309.591 304.301L309.518 303.73L309.459 303.098L309.439 302.798L309.419 302.321L309.413 301.84V218.321C309.413 218.031 309.42 217.741 309.435 217.454L309.451 217.17L309.499 216.605C309.59 215.706 309.752 214.828 309.978 213.977C310.032 213.775 310.09 213.573 310.151 213.373C310.335 212.775 310.551 212.191 310.798 211.622C310.879 211.437 310.962 211.253 311.049 211.071L311.196 210.772L311.481 210.229L311.782 209.704L312.014 209.327L312.187 209.059L312.572 208.499L312.789 208.204L313.012 207.915L313.201 207.679L313.546 207.27L314.055 206.71L314.492 206.268L315.129 205.677L315.614 205.266L316.155 204.842L316.698 204.451L316.985 204.257L317.365 204.013L318.027 203.621L318.566 203.332L319.012 203.11L319.687 202.806L320.503 202.484L321.173 202.256L321.804 202.07L322.396 201.919L323.026 201.784L323.379 201.719L323.956 201.629L324.56 201.557L325.058 201.514L325.665 201.482L326.276 201.471L326.705 201.476C326.91 201.481 327.114 201.49 327.317 201.503L327.776 201.537C328.175 201.572 328.569 201.621 328.959 201.683L329.64 201.806L330.157 201.919L330.738 202.067L331.228 202.209L331.752 202.379L332.393 202.614L332.689 202.732L333.423 203.055L334.179 203.432L334.671 203.704L335.278 204.07L335.71 204.352L336.106 204.628L336.533 204.945L336.927 205.256L337.333 205.598L337.896 206.11L338.34 206.547L338.93 207.183L339.372 207.704L339.644 208.047L340.158 208.751L340.459 209.202L340.809 209.767L341.169 210.41L341.205 210.477C341.307 210.669 341.405 210.865 341.499 211.062L341.637 211.358L341.942 212.073L342.087 212.447L342.235 212.862L342.276 212.983C342.384 213.306 342.483 213.635 342.571 213.967C342.73 214.559 342.856 215.165 342.95 215.781C343.003 216.135 343.046 216.492 343.077 216.853C343.105 217.176 343.123 217.501 343.133 217.829L343.14 218.321V288.298L437.723 313.622L532.306 288.298V218.321C532.306 217.827 532.327 217.338 532.369 216.854C532.4 216.492 532.443 216.135 532.496 215.781C532.589 215.164 532.716 214.559 532.874 213.966C532.963 213.635 533.062 213.306 533.17 212.982L533.252 212.742L533.359 212.447L533.642 211.738L533.676 211.658C533.762 211.457 533.853 211.258 533.946 211.062L534.091 210.768L534.432 210.125L534.699 209.663L534.986 209.202L535.369 208.635L535.616 208.293L535.802 208.047L536.074 207.704L536.516 207.182L537.024 206.631L537.549 206.11L537.718 205.951L538.113 205.598L538.638 205.16L539.113 204.794L539.548 204.481L540.04 204.151L540.385 203.935L540.931 203.615L541.496 203.312L541.913 203.106L542.465 202.855L542.757 202.732L543.293 202.522L543.912 202.306L544.358 202.167L545.085 201.969L545.693 201.829L545.906 201.786C546.483 201.673 547.072 201.589 547.67 201.537L548.129 201.503C548.332 201.49 548.536 201.481 548.741 201.476L549.169 201.471ZM410.404 238.838L410.468 238.835H464.978L465.042 238.838L465.25 238.835L465.463 238.838C468.789 238.951 471.45 241.686 471.45 245.043C471.45 245.786 471.32 246.499 471.08 247.159C467.378 261.746 454.176 272.535 438.456 272.535L437.722 272.527L436.99 272.535C421.27 272.535 408.067 261.746 404.366 247.159C404.126 246.499 403.996 245.786 403.996 245.043C403.996 241.686 406.657 238.951 409.983 238.838L410.196 238.835C410.265 238.835 410.335 238.836 410.404 238.838ZM486.114 171.434C498.667 171.434 508.843 181.602 508.843 194.145C508.843 206.688 498.667 216.856 486.114 216.856C473.561 216.856 463.385 206.688 463.385 194.145C463.385 181.602 473.561 171.434 486.114 171.434ZM390.798 171.434C403.351 171.434 413.527 181.602 413.527 194.145C413.527 206.688 403.351 216.856 390.798 216.856C378.245 216.856 368.069 206.688 368.069 194.145C368.069 181.602 378.245 171.434 390.798 171.434ZM437.723 0L438.208 0.004361C452.562 0.262745 464.118 11.9701 464.118 26.3744C464.118 30.5989 463.124 34.5915 461.357 38.1313C460.281 40.2865 458.919 42.2735 457.32 44.0428L456.974 44.418C456.508 44.9146 456.023 45.3931 455.52 45.8524L455.138 46.194C454.626 46.6436 454.096 47.0737 453.55 47.4832L453.138 47.7858L452.787 48.0343L452.294 48.3692L451.865 48.6478L451.517 48.8651L451.165 49.0771C451.042 49.1498 450.919 49.2218 450.794 49.2928C450.114 49.6812 449.414 50.0401 448.698 50.3678L448.224 50.5792L447.948 50.6967C447.506 50.8826 447.057 51.0568 446.603 51.2189L446.279 51.3321L445.789 51.4946L445.788 76.8945L553.334 105.69C560.018 107.48 564.682 113.043 565.645 119.47C565.691 119.681 565.733 119.893 565.771 120.107C565.871 120.669 565.944 121.241 565.987 121.821L566.024 122.52L566.033 122.8V171.434L566.028 171.862C566.002 172.899 565.882 173.913 565.677 174.896C565.597 175.276 565.505 175.652 565.4 176.023C565.195 176.748 564.943 177.452 564.648 178.132C564.567 178.318 564.483 178.502 564.396 178.684L564.26 178.964L563.95 179.553L563.69 180.008L563.432 180.428L563.259 180.696L562.873 181.256L562.669 181.533L562.245 182.076L561.9 182.485L561.391 183.044L560.958 183.482L560.376 184.025L559.831 184.489L559.426 184.81L558.747 185.304L558.461 185.498L558.081 185.742L557.418 186.134L556.88 186.423L556.434 186.645L555.972 186.857L555.411 187.092L554.96 187.264L554.279 187.497L553.758 187.653L553.049 187.836L552.419 187.971L552.067 188.036L551.489 188.126L550.885 188.198L550.387 188.241L549.781 188.273L549.169 188.284L548.741 188.278L548.129 188.252L547.669 188.218C547.271 188.183 546.877 188.134 546.487 188.072L545.805 187.948L545.289 187.836L544.708 187.688L544.217 187.546L543.693 187.376L543.052 187.141L542.757 187.023L542.022 186.7L541.267 186.323L540.695 186.005L540.167 185.685L539.735 185.402L539.339 185.127L538.913 184.81L538.519 184.498L538.109 184.154L537.546 183.642L537.106 183.208L536.515 182.572L536.043 182.013L535.786 181.687L535.288 181.004L534.986 180.553L534.619 179.957L534.269 179.332L534.226 179.25C534.13 179.067 534.036 178.88 533.946 178.692C533.853 178.496 533.762 178.298 533.676 178.098L533.567 177.838L533.462 177.577C533.388 177.39 533.319 177.202 533.252 177.013C533.184 176.818 533.119 176.621 533.057 176.422C532.902 175.923 532.77 175.413 532.662 174.895C532.475 174.001 532.359 173.082 532.32 172.142L532.306 171.434V136.443L437.723 111.121L343.14 136.443V171.434C343.14 172.62 343.017 173.778 342.784 174.895C342.675 175.413 342.543 175.923 342.388 176.423C342.327 176.621 342.262 176.818 342.193 177.013L342.091 177.296L341.879 177.838L341.77 178.097C341.683 178.298 341.593 178.496 341.499 178.693L341.362 178.973L341.037 179.589L340.747 180.091L340.459 180.553L340.077 181.12L339.851 181.432L339.66 181.687L339.342 182.088L338.93 182.572L338.422 183.123L337.899 183.642L337.734 183.797L337.336 184.154L336.657 184.714L336.22 185.044L335.71 185.402L335.157 185.761L334.857 185.942L334.27 186.274L333.78 186.528L333.183 186.81L332.981 186.899L332.689 187.023L332.153 187.232L331.533 187.449L331.087 187.588L330.361 187.786L329.752 187.925L329.539 187.969C328.962 188.082 328.374 188.165 327.776 188.218L327.138 188.262L326.705 188.278L326.276 188.284L325.665 188.273L324.808 188.221L324.293 188.169L323.734 188.094L323.379 188.036L322.694 187.903L322.298 187.812L321.804 187.685L321.166 187.496L320.387 187.228L319.687 186.949L319.011 186.644L318.566 186.423L317.94 186.085L317.32 185.714L316.985 185.498L316.338 185.048L315.968 184.77L315.614 184.489L315.011 183.973L314.487 183.482L314.055 183.044L313.903 182.883L313.546 182.485L312.985 181.806L312.776 181.533L312.425 181.047L312.187 180.696L311.878 180.21L311.559 179.666L311.328 179.24C311.232 179.057 311.139 178.871 311.049 178.684C310.962 178.502 310.879 178.318 310.798 178.133C310.502 177.452 310.251 176.748 310.046 176.024C309.941 175.652 309.848 175.276 309.769 174.895C309.564 173.913 309.444 172.899 309.418 171.862L309.413 171.434V122.796L309.426 122.405C309.457 121.623 309.541 120.857 309.674 120.107L309.744 119.741L309.801 119.47C310.743 113.185 315.222 107.727 321.669 105.815L322.112 105.69L429.658 76.8945L429.657 51.4946L429.492 51.4412C429.274 51.3698 429.058 51.2957 428.842 51.2189C428.388 51.0568 427.94 50.8826 427.497 50.6967L427.222 50.5792L426.748 50.3678C426.031 50.0401 425.332 49.6812 424.652 49.293L424.28 49.0769C424.045 48.9376 423.812 48.7944 423.581 48.6478L423.013 48.2769C422.775 48.1172 422.54 47.9533 422.307 47.7858L421.896 47.4832C421.349 47.0737 420.82 46.6436 420.308 46.194L419.926 45.8524C419.423 45.3931 418.938 44.9146 418.471 44.418L418.126 44.0428C416.527 42.2735 415.165 40.2865 414.089 38.1318C412.322 34.5915 411.328 30.5989 411.328 26.3744C411.328 11.8082 423.145 0 437.723 0ZM596.094 169.236L596.523 169.241C605.494 169.465 612.725 176.688 612.952 185.651L612.958 186.086V202.204C612.958 211.367 605.638 218.821 596.523 219.049L596.094 219.054C586.781 219.054 579.231 211.51 579.231 202.204V186.086C579.231 176.78 586.781 169.236 596.094 169.236ZM279.351 219.054C270.038 219.054 262.488 211.51 262.488 202.204V186.086C262.488 176.78 270.038 169.236 279.351 169.236L279.78 169.241C288.751 169.465 295.982 176.688 296.21 185.651L296.215 186.086V202.204C296.215 211.367 288.895 218.821 279.78 219.049L279.351 219.054Z" fill="white"/>
</svg>
