<svg width="139" height="138" viewBox="0 0 139 138" fill="none" xmlns="http://www.w3.org/2000/svg">
<path fill-rule="evenodd" clip-rule="evenodd" d="M113.214 79.6261L113.455 79.6304L113.794 79.651L113.997 79.6717L114.218 79.7013L114.358 79.724L114.628 79.7766L114.785 79.8125L114.98 79.8629L115.186 79.9228L115.54 80.0435L115.816 80.1536L116.083 80.274L116.259 80.3614L116.506 80.4953L116.751 80.6418L116.883 80.7273L117.139 80.905L117.285 81.0147L117.425 81.1259L117.616 81.2886L117.834 81.4893L118.04 81.6968L118.1 81.7608L118.241 81.918L118.439 82.1561L118.534 82.2786L118.684 82.4861L118.778 82.625L118.866 82.762L118.977 82.946L119.109 83.1854C119.15 83.2626 119.189 83.341 119.227 83.4203C119.261 83.4921 119.295 83.5647 119.326 83.638C119.424 83.8628 119.509 84.0938 119.582 84.3304C119.606 84.4091 119.629 84.4887 119.65 84.5689C119.717 84.8211 119.77 85.0793 119.807 85.3425L119.84 85.6152L119.85 85.7183C119.861 85.85 119.868 85.9827 119.871 86.1165L119.873 86.2857V119.294L119.871 119.484L119.86 119.729L119.844 119.924L119.825 120.105L119.803 120.267C119.79 120.352 119.776 120.437 119.761 120.521L119.73 120.676L119.683 120.882L119.636 121.062C119.605 121.175 119.571 121.288 119.534 121.399C119.501 121.498 119.467 121.594 119.43 121.688L119.322 121.952C119.276 122.059 119.226 122.164 119.175 122.267L119.112 122.389L118.983 122.623L118.865 122.819L118.777 122.957C118.714 123.052 118.649 123.145 118.581 123.237L118.384 123.493L118.211 123.697L118.09 123.831L117.916 124.01L117.675 124.239L117.553 124.347L117.362 124.505L117.249 124.593L117.147 124.669L117.134 124.679C116.379 125.448 115.428 126.044 114.331 126.378L114.109 126.441L72.4927 137.592C72.1808 137.676 70.6561 137.998 69.2023 138C67.6854 138.002 66.2373 137.68 65.9119 137.592L24.2952 126.441C23.1787 126.142 22.205 125.576 21.4242 124.83L21.2577 124.669L21.1556 124.593L20.9331 124.416L20.73 124.239L20.6681 124.183C20.5462 124.07 20.4284 123.952 20.3152 123.831L20.1352 123.63L19.9459 123.399L19.9262 123.373C19.8564 123.283 19.7888 123.192 19.7236 123.098L19.5677 122.864L19.4212 122.623L19.3568 122.509C19.313 122.429 19.2706 122.349 19.2299 122.267L19.1543 122.111L19.0436 121.861L19.0298 121.827C18.9727 121.689 18.9202 121.548 18.8724 121.404L18.8174 121.232L18.7503 120.995L18.7089 120.829C18.6849 120.727 18.6631 120.624 18.6438 120.521C18.6282 120.437 18.6141 120.352 18.6017 120.267L18.5726 120.041L18.5494 119.791L18.5417 119.673L18.5338 119.484L18.5312 119.294V86.2857C18.5312 86.1708 18.5341 86.0565 18.5398 85.943L18.5465 85.8305L18.5653 85.6073C18.6012 85.2521 18.6651 84.9052 18.7546 84.5688C18.7759 84.4887 18.7987 84.4091 18.8229 84.3302C18.8954 84.0938 18.9808 83.8627 19.0782 83.6382C19.1101 83.5647 19.1431 83.4921 19.1774 83.4203L19.2353 83.302L19.348 83.0875L19.4667 82.88L19.5583 82.7308L19.6266 82.625L19.779 82.4037L19.8646 82.2872L19.9525 82.1729L20.0272 82.0797L20.1634 81.9179L20.3645 81.6968L20.5372 81.5218L20.7886 81.2885L20.9803 81.1258L21.1936 80.9586L21.4084 80.8037L21.5215 80.7273L21.6717 80.6308L21.9333 80.4758L22.1458 80.3614L22.3219 80.274L22.5887 80.1536L22.9109 80.0266L23.1756 79.9364L23.4245 79.8629L23.6585 79.8032L23.9073 79.7497L24.0465 79.724L24.2747 79.6886L24.5132 79.6601L24.7099 79.6432L24.9493 79.6304L25.1908 79.6261L25.3601 79.6282C25.441 79.6302 25.5216 79.6337 25.6017 79.6386L25.7832 79.6521C25.9405 79.6659 26.0962 79.6853 26.2502 79.7099L26.5193 79.7586L26.7232 79.8032L26.9528 79.8617L27.1463 79.9178L27.3533 79.9851L27.6065 80.0778L27.7231 80.1244L28.0133 80.252L28.3117 80.4011L28.506 80.5086L28.7458 80.6533L28.9164 80.7649L29.0728 80.8739L29.2412 80.999L29.3969 81.1222L29.5571 81.257L29.7797 81.4595L29.9547 81.6322L30.188 81.8835L30.3623 82.0894L30.4697 82.2251L30.6728 82.5033L30.7918 82.6816L30.9298 82.905L31.0722 83.1588L31.0863 83.1854C31.1264 83.2615 31.1652 83.3388 31.2025 83.4169L31.257 83.5337L31.3775 83.8162L31.4346 83.9641L31.4931 84.1281L31.5093 84.1758C31.5519 84.3036 31.5909 84.4334 31.626 84.5648C31.6884 84.7988 31.7384 85.0381 31.7752 85.2817C31.7964 85.4215 31.8132 85.5629 31.8255 85.7055C31.8365 85.8332 31.8439 85.9616 31.8476 86.091L31.8504 86.2857V113.942L69.2023 123.951L106.554 113.942V86.2857C106.554 86.0904 106.563 85.897 106.579 85.7059C106.591 85.5629 106.608 85.4215 106.629 85.2816C106.666 85.0381 106.716 84.7988 106.779 84.5646C106.814 84.4334 106.853 84.3036 106.895 84.1755L106.928 84.0806L106.97 83.964L107.082 83.6837L107.095 83.6521C107.129 83.5727 107.165 83.4943 107.202 83.4168L107.259 83.3004L107.394 83.0462L107.499 82.8639L107.613 82.6816L107.764 82.4575L107.861 82.3224L107.935 82.2251L108.042 82.0894L108.217 81.8834L108.417 81.6656L108.625 81.4595L108.692 81.3968L108.848 81.257L109.055 81.0841L109.243 80.9392L109.414 80.8157L109.609 80.6853L109.745 80.5997L109.96 80.4736L110.184 80.3538L110.348 80.2723L110.566 80.1732L110.682 80.1244L110.893 80.0416L111.138 79.9561L111.314 79.901L111.601 79.8228L111.841 79.7677L111.925 79.7507C112.153 79.706 112.386 79.6729 112.622 79.6521L112.803 79.6386C112.883 79.6337 112.964 79.6302 113.045 79.6282L113.214 79.6261ZM58.4137 94.3945L58.439 94.3931H79.9656L79.991 94.3945L80.073 94.3931L80.1572 94.3945C81.4705 94.439 82.5216 95.5198 82.5216 96.8467C82.5216 97.1404 82.4701 97.4222 82.3753 97.6832C80.9136 103.448 75.6997 107.712 69.4919 107.712L69.2021 107.709L68.9128 107.712C62.7049 107.712 57.491 103.448 56.0293 97.6832C55.9346 97.4222 55.883 97.1404 55.883 96.8467C55.883 95.5198 56.9341 94.439 58.2474 94.3945L58.3316 94.3931C58.359 94.3931 58.3864 94.3936 58.4137 94.3945ZM88.3126 67.7546C93.2699 67.7546 97.2886 71.7733 97.2886 76.7306C97.2886 81.6879 93.2699 85.7066 88.3126 85.7066C83.3552 85.7066 79.3365 81.6879 79.3365 76.7306C79.3365 71.7733 83.3552 67.7546 88.3126 67.7546ZM50.6711 67.7546C55.6285 67.7546 59.6472 71.7733 59.6472 76.7306C59.6472 81.6879 55.6285 85.7066 50.6711 85.7066C45.7138 85.7066 41.6951 81.6879 41.6951 76.7306C41.6951 71.7733 45.7138 67.7546 50.6711 67.7546ZM69.2023 0L69.3938 0.00172357C75.0623 0.103843 79.6261 4.73085 79.6261 10.4238C79.6261 12.0934 79.2335 13.6714 78.5357 15.0704C78.1108 15.9222 77.5729 16.7075 76.9415 17.4068L76.805 17.555C76.6208 17.7513 76.4292 17.9404 76.2304 18.122L76.0798 18.2569C75.8775 18.4346 75.6684 18.6046 75.4527 18.7665L75.2901 18.8861L75.1514 18.9843L74.9567 19.1166L74.7871 19.2268L74.6497 19.3127L74.5108 19.3964C74.4624 19.4252 74.4135 19.4536 74.3644 19.4817C74.0956 19.6352 73.8195 19.777 73.5365 19.9065L73.3492 19.9901L73.2405 20.0365C73.0658 20.11 72.8887 20.1788 72.7093 20.2429L72.5814 20.2876L72.3877 20.3519L72.3874 30.3905L114.858 41.7712C117.498 42.4785 119.34 44.6771 119.72 47.2175C119.738 47.3008 119.755 47.3846 119.77 47.469C119.81 47.6913 119.838 47.9173 119.855 48.1466L119.87 48.4229L119.873 48.5333V67.7546L119.871 67.9238C119.861 68.3338 119.814 68.7346 119.733 69.1229C119.701 69.2732 119.665 69.4219 119.623 69.5685C119.543 69.8548 119.443 70.1331 119.326 70.4021C119.295 70.4756 119.261 70.5482 119.227 70.62L119.173 70.7306L119.051 70.9635L118.948 71.1432L118.846 71.3095L118.778 71.4153L118.626 71.6366L118.545 71.7462L118.377 71.9606L118.241 72.1223L118.04 72.3435L117.869 72.5165L117.639 72.7312L117.424 72.9145L117.264 73.0412L116.996 73.2365L116.883 73.313L116.733 73.4095L116.471 73.5645L116.259 73.6789L116.083 73.7663L115.9 73.8502L115.679 73.9431L115.501 74.0112L115.232 74.103L115.026 74.1647L114.746 74.2371L114.497 74.2906L114.358 74.3163L114.13 74.3517L113.891 74.3801L113.695 74.3971L113.455 74.4099L113.214 74.4142L113.045 74.4121L112.803 74.4017L112.621 74.3882C112.464 74.3744 112.308 74.355 112.154 74.3304L111.885 74.2817L111.681 74.237L111.452 74.1786L111.258 74.1225L111.051 74.0552L110.798 73.9625L110.682 73.9159L110.391 73.7883L110.093 73.6391L109.867 73.5135L109.659 73.387L109.488 73.2754L109.332 73.1664L109.163 73.0413L109.008 72.9181L108.846 72.7819L108.624 72.5797L108.45 72.4081L108.217 72.1568L108.03 71.9358L107.929 71.8068L107.732 71.537L107.613 71.3587L107.468 71.1231L107.33 70.876L107.313 70.8439C107.274 70.7713 107.238 70.6977 107.202 70.6234C107.165 70.546 107.129 70.4676 107.095 70.3884L107.052 70.2859L107.011 70.1826C106.982 70.1088 106.954 70.0345 106.928 69.9596C106.901 69.8825 106.875 69.8047 106.851 69.7262C106.79 69.5289 106.738 69.3275 106.695 69.1227C106.621 68.7694 106.575 68.4059 106.56 68.0345L106.554 67.7546V53.9257L69.2023 43.9177L31.8504 53.9257V67.7546C31.8504 68.2235 31.802 68.6811 31.7098 69.1227C31.667 69.3275 31.6148 69.5289 31.5537 69.7264C31.5295 69.8047 31.5038 69.8825 31.4767 69.9597L31.4363 70.0715L31.3525 70.2858L31.3094 70.3882C31.2752 70.4676 31.2396 70.546 31.2025 70.6235L31.1482 70.7344L31.0198 70.9779L30.9053 71.1764L30.7918 71.3587L30.6409 71.5827L30.5518 71.7063L30.4761 71.8068L30.3506 71.9653L30.1879 72.1569L29.9872 72.3747L29.7809 72.5797L29.7158 72.6409L29.5585 72.782L29.2903 73.0033L29.1178 73.1337L28.9164 73.2754L28.6978 73.4171L28.5795 73.4888L28.3475 73.62L28.1541 73.7202L27.9183 73.8319L27.8386 73.8671L27.7231 73.9158L27.5116 73.9986L27.2669 74.0842L27.0907 74.1392L26.8038 74.2175L26.5635 74.2726L26.4795 74.2896C26.2516 74.3343 26.0191 74.3674 25.7831 74.3882L25.5309 74.4057L25.3601 74.4121L25.1908 74.4142L24.9493 74.4099L24.6109 74.3893L24.4076 74.3686L24.1867 74.339L24.0465 74.3163L23.7762 74.2636L23.6197 74.2278L23.4245 74.1774L23.1727 74.103L22.865 73.9968L22.5887 73.8867L22.3218 73.7663L22.1458 73.6789L21.8989 73.545L21.654 73.3985L21.5215 73.313L21.2659 73.1353L21.12 73.0256L20.9801 72.9143L20.7422 72.7105L20.5352 72.5165L20.3645 72.3435L20.3045 72.2795L20.1634 72.1223L19.9421 71.8541L19.8596 71.7463L19.7208 71.5542L19.6266 71.4153L19.5048 71.2234L19.3787 71.0081L19.2874 70.8399C19.2495 70.7675 19.2128 70.6941 19.1774 70.62C19.1431 70.5482 19.1101 70.4756 19.0783 70.4023C18.9615 70.1331 18.8621 69.8548 18.7813 69.5687C18.7398 69.4219 18.7033 69.2732 18.6718 69.1227C18.5908 68.7346 18.5435 68.3338 18.5333 67.9238L18.5312 67.7546V48.5318L18.5364 48.3772C18.5486 48.0685 18.5818 47.7654 18.6345 47.4691L18.6619 47.3246L18.6845 47.2175C19.0563 44.7335 20.8254 42.5764 23.3713 41.8206L23.5461 41.7712L66.0173 30.3905L66.017 20.3519L65.9518 20.3308C65.8658 20.3026 65.7803 20.2733 65.6953 20.2429C65.516 20.1788 65.3388 20.11 65.1641 20.0365L65.0555 19.9901L64.8681 19.9065C64.5852 19.777 64.309 19.6352 64.0403 19.4817L63.8936 19.3964C63.8007 19.3413 63.7086 19.2847 63.6175 19.2268L63.3933 19.0802C63.2994 19.017 63.2064 18.9523 63.1145 18.8861L62.9519 18.7665C62.7363 18.6046 62.5271 18.4346 62.3248 18.2569L62.1742 18.122C61.9754 17.9404 61.7838 17.7513 61.5996 17.555L61.4631 17.4068C60.8318 16.7075 60.2938 15.9222 59.869 15.0706C59.1711 13.6714 58.7785 12.0934 58.7785 10.4238C58.7785 4.66688 63.4454 0 69.2023 0ZM131.745 66.8859L131.914 66.888C135.457 66.9764 138.313 69.8313 138.402 73.3736L138.405 73.5455V79.9156C138.405 83.5371 135.514 86.4834 131.914 86.5732L131.745 86.5753C128.067 86.5753 125.085 83.5937 125.085 79.9156V73.5455C125.085 69.8675 128.067 66.8859 131.745 66.8859ZM6.65964 86.5753C2.98162 86.5753 0 83.5937 0 79.9156V73.5455C0 69.8675 2.98162 66.8859 6.65964 66.8859L6.82889 66.888C10.3715 66.9764 13.2273 69.8313 13.3171 73.3736L13.3193 73.5455V79.9156C13.3193 83.5371 10.4287 86.4834 6.82889 86.5732L6.65964 86.5753Z" fill="url(#paint0_angular_1_7297)"/>
<defs>
<radialGradient id="paint0_angular_1_7297" cx="0" cy="0" r="1" gradientUnits="userSpaceOnUse" gradientTransform="translate(69.2023 69) rotate(155.85) scale(75.8401 75.6928)">
<stop offset="0.15625" stop-color="#FF8D00"/>
<stop offset="0.536458" stop-color="#FF00FE"/>
<stop offset="1" stop-color="#0094FF"/>
</radialGradient>
</defs>
</svg>
