<svg width="107" height="107" viewBox="0 0 107 107" fill="none" xmlns="http://www.w3.org/2000/svg">
<path fill-rule="evenodd" clip-rule="evenodd" d="M87.3677 61.4323L87.5527 61.4356L87.8119 61.4514L87.9676 61.4672L88.1369 61.4899L88.2443 61.5073L88.4513 61.5476L88.5712 61.5751L88.7207 61.6136L88.8781 61.6596L89.1493 61.752L89.3609 61.8364L89.5653 61.9286L89.7002 61.9955L89.8893 62.0981L90.0769 62.2103L90.1784 62.2758L90.3742 62.4119L90.486 62.496L90.5931 62.5812L90.7399 62.7058L90.9067 62.8595L91.0646 63.0184L91.1106 63.0674L91.2187 63.1879L91.37 63.3702L91.4426 63.4641L91.5577 63.623L91.6298 63.7295L91.6972 63.8344L91.7821 63.9753L91.8837 64.1587C91.9148 64.2178 91.945 64.2779 91.9739 64.3386C92.0002 64.3936 92.0255 64.4492 92.0499 64.5054C92.1246 64.6775 92.19 64.8545 92.2456 65.0357C92.2641 65.0961 92.2815 65.157 92.2979 65.2184C92.3493 65.4117 92.3896 65.6094 92.4182 65.811L92.4434 66.0199L92.4507 66.0989C92.4592 66.1998 92.4648 66.3015 92.4674 66.4039L92.469 66.5335V91.818L92.4669 91.9635L92.4583 92.1506L92.4465 92.3L92.4316 92.4389L92.4149 92.5632C92.4054 92.6283 92.3946 92.6931 92.3827 92.7574L92.3591 92.8761L92.3231 93.0342L92.2874 93.1716C92.2635 93.2588 92.2373 93.3451 92.2089 93.4304C92.1836 93.5061 92.1573 93.5793 92.1296 93.6512L92.0466 93.8537C92.011 93.9354 91.9733 94.016 91.9337 94.0953L91.886 94.1883L91.7872 94.3674L91.6968 94.5177L91.629 94.6233C91.5809 94.6962 91.531 94.7678 91.4793 94.8381L91.3277 95.034L91.1956 95.1901L91.1025 95.2929L90.9698 95.4302L90.7847 95.6059L90.6916 95.6879L90.5452 95.809L90.4586 95.8767L90.3805 95.935L90.3706 95.9424C89.7924 96.5318 89.0638 96.9878 88.2233 97.2439L88.0538 97.2925L56.1756 105.834C55.9367 105.898 54.7687 106.145 53.6551 106.146C52.4932 106.148 51.384 105.901 51.1347 105.834L19.2565 97.2925C18.4013 97.0633 17.6554 96.6298 17.0573 96.0585L16.9298 95.935L16.8516 95.8767L16.6811 95.7408L16.5255 95.6058L16.4781 95.5626C16.3847 95.476 16.2945 95.3861 16.2078 95.2929L16.0699 95.1387L15.9249 94.9619L15.9098 94.9425C15.8564 94.8736 15.8046 94.8033 15.7547 94.7317L15.6353 94.5524L15.523 94.3674L15.4737 94.2802C15.4402 94.2194 15.4077 94.1576 15.3765 94.0952L15.3186 93.9754L15.2338 93.7838L15.2232 93.7582C15.1795 93.652 15.1392 93.544 15.1026 93.4343L15.0605 93.3022L15.0091 93.1207L14.9774 92.9938C14.959 92.9157 14.9424 92.8368 14.9276 92.7572C14.9156 92.6931 14.9048 92.6283 14.8953 92.5631L14.873 92.3901L14.8553 92.1988L14.8494 92.108L14.8433 91.9635L14.8413 91.818V66.5335C14.8413 66.4455 14.8435 66.358 14.8479 66.271L14.853 66.1849L14.8674 66.0138C14.8949 65.7418 14.9438 65.4761 15.0124 65.2184C15.0287 65.157 15.0462 65.0961 15.0647 65.0356C15.1203 64.8545 15.1857 64.6775 15.2603 64.5055C15.2847 64.4492 15.31 64.3936 15.3363 64.3386L15.3807 64.248L15.4669 64.0837L15.5579 63.9248L15.6281 63.8105L15.6804 63.7294L15.7971 63.5599L15.8627 63.4707L15.93 63.3831L15.9872 63.3117L16.0916 63.1878L16.2456 63.0185L16.3779 62.8844L16.5704 62.7057L16.7173 62.5811L16.8807 62.453L17.0452 62.3344L17.1318 62.2758L17.2469 62.2019L17.4472 62.0832L17.6101 61.9955L17.745 61.9286L17.9493 61.8364L18.1961 61.7391L18.3989 61.67L18.5895 61.6137L18.7688 61.568L18.9594 61.5269L19.066 61.5073L19.2408 61.4802L19.4235 61.4584L19.5741 61.4454L19.7575 61.4356L19.9425 61.4323L20.0722 61.4339C20.1342 61.4354 20.1959 61.4381 20.2573 61.4418L20.3963 61.4522C20.5168 61.4628 20.6361 61.4776 20.754 61.4965L20.9602 61.5338L21.1163 61.568L21.2922 61.6127L21.4405 61.6558L21.599 61.7072L21.7929 61.7783L21.8822 61.814L22.1045 61.9117L22.3331 62.026L22.4819 62.1083L22.6656 62.2191L22.7963 62.3046L22.9161 62.3881L23.0451 62.4839L23.1643 62.5783L23.2871 62.6816L23.4576 62.8366L23.5917 62.9689L23.7704 63.1614L23.9039 63.3192L23.9861 63.4231L24.1417 63.6362L24.2329 63.7728L24.3385 63.9439L24.4476 64.1383L24.4584 64.1587C24.4892 64.217 24.5189 64.2762 24.5475 64.336L24.5892 64.4255L24.6815 64.6419L24.7252 64.7551L24.7701 64.8808L24.7824 64.9173C24.8151 65.0153 24.845 65.1147 24.8718 65.2154C24.9196 65.3945 24.958 65.5778 24.9862 65.7645C25.0024 65.8716 25.0152 65.9798 25.0247 66.0891C25.0331 66.1869 25.0388 66.2853 25.0416 66.3844L25.0438 66.5335V87.7184L53.6551 95.3849L82.2665 87.7184V66.5335C82.2665 66.3839 82.2729 66.2357 82.2855 66.0894C82.295 65.9798 82.3079 65.8716 82.3241 65.7644C82.3523 65.5778 82.3906 65.3945 82.4385 65.2151C82.4653 65.1147 82.4951 65.0152 82.5279 64.9171L82.5528 64.8444L82.585 64.7551L82.6705 64.5404L82.6809 64.5162C82.7071 64.4554 82.7344 64.3953 82.7628 64.3359L82.8065 64.2468L82.9096 64.0521L82.9905 63.9124L83.0774 63.7728L83.193 63.6012L83.2678 63.4976L83.3241 63.4231L83.4064 63.3191L83.54 63.1614L83.6937 62.9946L83.8526 62.8366L83.9038 62.7886L84.0232 62.6816L84.1819 62.5491L84.3257 62.4381L84.4572 62.3435L84.6062 62.2437L84.7106 62.1781L84.8755 62.0815L85.0466 61.9897L85.1728 61.9273L85.3395 61.8514L85.428 61.814L85.59 61.7506L85.7774 61.6851L85.9124 61.6429L86.1322 61.5829L86.3162 61.5408L86.3806 61.5277C86.5552 61.4935 86.7332 61.4681 86.914 61.4522L87.0529 61.4418C87.1144 61.4381 87.1761 61.4354 87.2381 61.4339L87.3677 61.4323ZM45.3911 72.7448L45.4105 72.7437H61.8998L61.9192 72.7448L61.9821 72.7437L62.0465 72.7448C63.0525 72.7789 63.8576 73.6068 63.8576 74.6232C63.8576 74.8482 63.8182 75.064 63.7456 75.2639C62.6259 79.6798 58.6321 82.9462 53.8769 82.9462L53.655 82.9439L53.4333 82.9462C48.6782 82.9462 44.6843 79.6798 43.5647 75.2639C43.4921 75.064 43.4526 74.8482 43.4526 74.6232C43.4526 73.6068 44.2577 72.7789 45.2637 72.7448L45.3282 72.7437C45.3492 72.7437 45.3702 72.7441 45.3911 72.7448ZM68.2935 52.3388C72.0908 52.3388 75.1691 55.4171 75.1691 59.2143C75.1691 63.0116 72.0908 66.0899 68.2935 66.0899C64.4962 66.0899 61.4179 63.0116 61.4179 59.2143C61.4179 55.4171 64.4962 52.3388 68.2935 52.3388ZM39.4603 52.3388C43.2576 52.3388 46.3359 55.4171 46.3359 59.2143C46.3359 63.0116 43.2576 66.0899 39.4603 66.0899C35.6631 66.0899 32.5847 63.0116 32.5847 59.2143C32.5847 55.4171 35.6631 52.3388 39.4603 52.3388ZM53.6551 0.439087L53.8018 0.440407C58.1439 0.51863 61.6397 4.06289 61.6397 8.42365C61.6397 9.70258 61.339 10.9113 60.8045 11.9829C60.479 12.6354 60.0669 13.2369 59.5833 13.7726L59.4788 13.8862C59.3377 14.0365 59.1909 14.1814 59.0386 14.3204L58.9232 14.4238C58.7683 14.5599 58.6081 14.6902 58.4429 14.8141L58.3183 14.9057L58.2121 14.981L58.063 15.0823L57.9331 15.1667L57.8278 15.2325L57.7214 15.2967C57.6843 15.3187 57.6469 15.3405 57.6093 15.3619C57.4034 15.4795 57.1918 15.5882 56.9751 15.6874L56.8316 15.7514L56.7483 15.787C56.6145 15.8432 56.4788 15.896 56.3414 15.9451L56.2435 15.9793L56.0951 16.0285L56.0948 23.7181L88.6275 32.4356C90.6494 32.9774 92.0602 34.6615 92.3516 36.6075C92.3655 36.6713 92.3782 36.7355 92.3897 36.8001C92.4201 36.9704 92.442 37.1435 92.4549 37.3192L92.4662 37.5308L92.469 37.6154V52.3388L92.4674 52.4684C92.4595 52.7824 92.4233 53.0894 92.3612 53.3869C92.3372 53.502 92.3092 53.6159 92.2775 53.7282C92.2155 53.9475 92.1393 54.1607 92.0499 54.3668C92.0255 54.423 92.0002 54.4786 91.9739 54.5337L91.9325 54.6184L91.8388 54.7968L91.7601 54.9345L91.6822 55.0618L91.6298 55.1428L91.5131 55.3123L91.4515 55.3964L91.323 55.5606L91.2187 55.6845L91.0646 55.8538L90.9339 55.9864L90.7576 56.1508L90.593 56.2912L90.4704 56.3883L90.265 56.5379L90.1784 56.5965L90.0633 56.6704L89.863 56.7891L89.7002 56.8768L89.5653 56.9437L89.4255 57.008L89.2559 57.0792L89.1195 57.1313L88.9133 57.2017L88.7557 57.2489L88.5414 57.3043L88.3509 57.3453L88.2442 57.365L88.0695 57.3921L87.8868 57.4139L87.7361 57.4269L87.5527 57.4367L87.3677 57.44L87.2381 57.4384L87.0529 57.4304L86.914 57.4201C86.7935 57.4095 86.6742 57.3947 86.5562 57.3758L86.3501 57.3385L86.1939 57.3043L86.0181 57.2595L85.8698 57.2165L85.7113 57.165L85.5173 57.094L85.428 57.0583L85.2057 56.9605L84.9771 56.8463L84.8042 56.7501L84.6446 56.6532L84.5139 56.5677L84.3941 56.4842L84.2651 56.3884L84.1459 56.294L84.022 56.1897L83.8517 56.0348L83.7186 55.9034L83.5399 55.7108L83.397 55.5416L83.3192 55.4428L83.1686 55.2361L83.0774 55.0995L82.9662 54.9191L82.8604 54.7298L82.8474 54.7052C82.8182 54.6496 82.79 54.5932 82.7628 54.5363C82.7344 54.477 82.7071 54.4169 82.681 54.3563L82.6479 54.2777L82.6162 54.1987C82.594 54.1421 82.5729 54.0852 82.5527 54.0278C82.532 53.9688 82.5123 53.9091 82.4937 53.849C82.447 53.6979 82.407 53.5436 82.3742 53.3867C82.3177 53.1161 82.2827 52.8377 82.2709 52.5532L82.2665 52.3388V41.7459L53.6551 34.0798L25.0438 41.7459V52.3388C25.0438 52.698 25.0066 53.0485 24.936 53.3867C24.9033 53.5436 24.8633 53.6979 24.8165 53.8492C24.7979 53.9091 24.7782 53.9688 24.7575 54.0279L24.7265 54.1135L24.6624 54.2777L24.6294 54.3561C24.6031 54.4169 24.5758 54.477 24.5474 54.5364L24.5059 54.6213L24.4075 54.8078L24.3198 54.9599L24.2329 55.0995L24.1172 55.2711L24.049 55.3658L23.991 55.4428L23.8949 55.5641L23.7703 55.7109L23.6165 55.8777L23.4585 56.0348L23.4086 56.0816L23.2882 56.1897L23.0827 56.3592L22.9506 56.4592L22.7963 56.5677L22.6289 56.6762L22.5382 56.7312L22.3606 56.8316L22.2124 56.9084L22.0317 56.9939L21.9707 57.0209L21.8823 57.0583L21.7203 57.1217L21.5328 57.1872L21.3979 57.2294L21.1781 57.2894L20.994 57.3315L20.9296 57.3446C20.7551 57.3788 20.577 57.4042 20.3962 57.4201L20.203 57.4335L20.0722 57.4384L19.9425 57.44L19.7575 57.4367L19.4984 57.4209L19.3426 57.4051L19.1733 57.3824L19.066 57.365L18.8589 57.3247L18.739 57.2972L18.5895 57.2586L18.3967 57.2016L18.161 57.1203L17.9494 57.0359L17.7449 56.9437L17.6101 56.8767L17.4209 56.7742L17.2334 56.662L17.1318 56.5965L16.9361 56.4604L16.8243 56.3763L16.7171 56.2911L16.5349 56.135L16.3764 55.9864L16.2456 55.8538L16.1996 55.8048L16.0915 55.6844L15.922 55.479L15.8588 55.3964L15.7525 55.2493L15.6804 55.1428L15.5871 54.9959L15.4905 54.831L15.4206 54.7021C15.3915 54.6467 15.3634 54.5904 15.3363 54.5337C15.31 54.4786 15.2847 54.423 15.2604 54.3669C15.1709 54.1607 15.0947 53.9475 15.0328 53.7284C15.0011 53.6159 14.9731 53.502 14.949 53.3867C14.8869 53.0894 14.8507 52.7824 14.8429 52.4684L14.8413 52.3388V37.6142L14.8453 37.4958C14.8546 37.2593 14.88 37.0271 14.9204 36.8002L14.9414 36.6895L14.9587 36.6075C15.2435 34.7047 16.5986 33.0524 18.5488 32.4734L18.6827 32.4356L51.2154 23.7181L51.2152 16.0285L51.1653 16.0124C51.0994 15.9908 51.0339 15.9683 50.9688 15.9451C50.8314 15.896 50.6957 15.8432 50.5619 15.787L50.4787 15.7514L50.3352 15.6874C50.1184 15.5882 49.9069 15.4795 49.7011 15.362L49.5887 15.2966C49.5176 15.2544 49.447 15.2111 49.3772 15.1667L49.2055 15.0544C49.1335 15.006 49.0623 14.9564 48.9919 14.9057L48.8674 14.8141C48.7022 14.6902 48.5419 14.5599 48.387 14.4238L48.2716 14.3204C48.1194 14.1814 47.9726 14.0365 47.8315 13.8862L47.727 13.7726C47.2433 13.2369 46.8313 12.6354 46.5059 11.9831C45.9712 10.9113 45.6706 9.70258 45.6706 8.42365C45.6706 4.0139 49.2454 0.439087 53.6551 0.439087ZM101.563 51.6734L101.692 51.675C104.406 51.7427 106.593 53.9295 106.662 56.6429L106.664 56.7746V61.6541C106.664 64.4281 104.45 66.6849 101.692 66.7537L101.563 66.7553C98.7452 66.7553 96.4613 64.4714 96.4613 61.6541V56.7746C96.4613 53.9573 98.7452 51.6734 101.563 51.6734ZM5.74773 66.7553C2.93039 66.7553 0.646484 64.4714 0.646484 61.6541V56.7746C0.646484 53.9573 2.93039 51.6734 5.74773 51.6734L5.87738 51.675C8.59104 51.7427 10.7786 53.9295 10.8473 56.6429L10.849 56.7746V61.6541C10.849 64.4281 8.63481 66.6849 5.87738 66.7537L5.74773 66.7553Z" fill="white"/>
</svg>
